<svg xmlns="http://www.w3.org/2000/svg" xmlns:xlink="http://www.w3.org/1999/xlink" viewBox="0 0 384.35 94.84"><defs><style>.cls-1{fill:url(#무제_그라디언트_5);}</style><linearGradient id="무제_그라디언트_5" x1="192.18" x2="192.18" y2="94.84" gradientUnits="userSpaceOnUse"><stop offset="0" stop-color="#24d59e"/><stop offset="0.21" stop-color="#25d4a2"/><stop offset="0.43" stop-color="#27d3af"/><stop offset="0.65" stop-color="#2ccfc3"/><stop offset="0.87" stop-color="#32cbe0"/><stop offset="1" stop-color="#36c8f5"/></linearGradient></defs><g id="레이어_2" data-name="레이어 2"><g id="레이어_1-2" data-name="레이어 1"><path class="cls-1" d="M57.45,65.37c-6.22,5-14.64,6.91-23.06,6.91C13.73,72.28,0,60,0,36.79,0,12.33,13.73,0,34.39,0c9.32,0,14.53,2.1,20.55,4.91l-3.21,9.43C46.22,11.73,40.9,10,34.69,10,22,10,11.83,18.55,11.83,36.79S22.06,62.26,34.39,62.26a36.06,36.06,0,0,0,12.13-1.91V41.81H31.38V32.68H50.93c4.61,0,6.52,2.11,6.52,7.22ZM80.7,71.28V36.19a15.08,15.08,0,0,1,11-4.61,22,22,0,0,1,9,1.7V23.66A15.36,15.36,0,0,0,93.63,22a16.13,16.13,0,0,0-13,6.21l-1.2-4.71H69.47V71.28Zm72.39-24.16c0,16.44-8.83,25.16-23.17,25.16s-23.16-8.72-23.16-25.16c0-17.44,8.82-25.16,23.16-25.16S153.09,29.68,153.09,47.12Zm-11.34,0c0-10.73-3-15.64-11.73-15.64-8.92,0-11.93,4.91-11.93,15.64,0,10.23,3,15.54,11.83,15.54S141.75,57.35,141.75,47.12Zm53-23.66V57.15A17.46,17.46,0,0,1,182,62.86c-4.61,0-6.62-1.4-6.62-6.42v-33H164.11V57.65c0,9.62,5.91,14.63,16.74,14.63a22.07,22.07,0,0,0,14.94-5.51c1.6,3.61,5.11,5.51,9.92,5.51a15.13,15.13,0,0,0,8-2.4l-1.6-7.42a12.15,12.15,0,0,1-4,.7c-1.61,0-2.11-.6-2.11-2.41V23.46Zm70.78,23.16c0,15.84-8.33,26-21,26A43.11,43.11,0,0,1,232,70.68V91.43H220.74v-68h9.83l1.3,5.21c2.81-3.2,7.22-6.71,15.64-6.71C259.54,22,265.56,32.78,265.56,46.62Zm-11.43.2c0-10-3.31-15.24-10.33-15.24-5.71,0-9.22,3.71-11.83,7.62V61.26A33.89,33.89,0,0,0,242.9,63C250.72,63,254.13,56.74,254.13,46.82Zm74.18,4c0,14.94-11.23,20.45-25.16,20.45H291c-9.22,0-13.44-3.31-13.44-11.93V12.74C277.58,5.12,281.49,1,289,1h14.74C317,1,326.61,6,326.61,19.75c0,6.62-2.41,13-9.93,15.44C324.5,36.59,328.31,42.51,328.31,50.83ZM289,30.68h13.64c8.72,0,12.53-3.51,12.53-10.63,0-6.21-4.61-9.62-11.43-9.62H292.82c-2.8,0-3.81,1.7-3.81,4Zm27.87,20.25c0-7.22-4.11-10.83-13-10.83H289V58c0,2.8,1.41,3.91,4.11,3.91h11C311.57,61.86,316.88,58.45,316.88,50.93Zm67.47-27.47H373.12V55.84a15.12,15.12,0,0,1-13,7c-6.62,0-8.52-2.71-8.52-8.82V23.46H340.34V54.14c0,12.53,7.72,18.14,17.54,18.14,5.82,0,11.43-1.5,15.24-5.51V76c0,7.22-5.81,9.43-11.83,9.43-3.91,0-6.81-.1-12.63-.5v9.42c3.51.2,7.62.5,12.63.5,11.83,0,23.06-4.81,23.06-18.75Z"/></g></g></svg>